<?xml version="1.0" encoding="UTF-8" standalone="no"?>
<!-- Generator: Adobe Illustrator 19.0.0, SVG Export Plug-In . SVG Version: 6.00 Build 0)  -->

<svg
   xmlns:dc="http://purl.org/dc/elements/1.1/"
   xmlns:cc="http://creativecommons.org/ns#"
   xmlns:rdf="http://www.w3.org/1999/02/22-rdf-syntax-ns#"
   xmlns:svg="http://www.w3.org/2000/svg"
   xmlns="http://www.w3.org/2000/svg"
   xmlns:sodipodi="http://sodipodi.sourceforge.net/DTD/sodipodi-0.dtd"
   xmlns:inkscape="http://www.inkscape.org/namespaces/inkscape"
   version="1.1"
   id="Capa_1"
   x="0px"
   y="0px"
   viewBox="0 0 384 384"
   style="enable-background:new 0 0 384 384;"
   xml:space="preserve"
   sodipodi:docname="lightning.svg"
   inkscape:version="0.92.4 (5da689c313, 2019-01-14)"><metadata
   id="metadata43"><rdf:RDF><cc:Work
       rdf:about=""><dc:format>image/svg+xml</dc:format><dc:type
         rdf:resource="http://purl.org/dc/dcmitype/StillImage" /></cc:Work></rdf:RDF></metadata><defs
   id="defs41" /><sodipodi:namedview
   pagecolor="#ffffff"
   bordercolor="#666666"
   borderopacity="1"
   objecttolerance="10"
   gridtolerance="10"
   guidetolerance="10"
   inkscape:pageopacity="0"
   inkscape:pageshadow="2"
   inkscape:window-width="1920"
   inkscape:window-height="1017"
   id="namedview39"
   showgrid="false"
   inkscape:zoom="0.61458333"
   inkscape:cx="192"
   inkscape:cy="192"
   inkscape:window-x="1912"
   inkscape:window-y="-8"
   inkscape:window-maximized="1"
   inkscape:current-layer="g4" />
<g
   id="g6"
   style="opacity:0.99">
	<g
   id="g4"
   style="">
		<path
   d="M280,101.68c-4.36,0-8.672,0.256-12.912,0.776C253.568,61.32,213.624,32,168,32C110.656,32,64,77.4,64,133.2    c0,0.896,0.008,1.784,0.032,2.672C26.592,146.024,0,179.096,0,218.32C0,265.56,39.48,304,88,304c8.832,0,16-7.168,16-16    c0-8.832-7.168-16-16-16c-30.88,0-56-24.08-56-53.68c0-27.928,21.888-50.888,50.912-53.416c4.536-0.4,8.696-2.712,11.424-6.36    c2.728-3.656,3.768-8.296,2.864-12.76c-0.8-3.928-1.2-8.16-1.2-12.584C96,95.04,128.304,64,168,64    c35.72,0,66.36,25.576,71.28,59.496c0.672,4.592,3.296,8.672,7.208,11.176c3.912,2.504,8.712,3.168,13.168,1.872    c6.424-1.896,13.264-2.864,20.344-2.864c39.704,0,72,31.008,72,69.12c0,38.16-32.296,69.2-72,69.2h-79.536l13.96-29.08    c2.384-4.96,2.048-10.792-0.88-15.44c-2.928-4.656-8.04-7.48-13.544-7.48h-22.792l21.264-45.184    c3.768-8,0.336-17.528-7.664-21.288c-8.008-3.768-17.536-0.328-21.288,7.664l-32,68c-2.336,4.96-1.968,10.76,0.968,15.384    C141.424,249.2,146.52,252,152,252h22.568l-37,77.08c-3.824,7.968-0.464,17.52,7.504,21.344c2.24,1.072,4.592,1.576,6.92,1.576    c5.96,0,11.68-3.344,14.44-9.08L185.104,304H280c57.344,0,104-45.4,104-101.2C384,147.04,337.344,101.68,280,101.68z"
   id="path2"
   style="fill:#ffffff;fill-opacity:1;stroke:#e8e8e8;stroke-opacity:1" />
	</g>
</g>
<g
   id="g8">
</g>
<g
   id="g10">
</g>
<g
   id="g12">
</g>
<g
   id="g14">
</g>
<g
   id="g16">
</g>
<g
   id="g18">
</g>
<g
   id="g20">
</g>
<g
   id="g22">
</g>
<g
   id="g24">
</g>
<g
   id="g26">
</g>
<g
   id="g28">
</g>
<g
   id="g30">
</g>
<g
   id="g32">
</g>
<g
   id="g34">
</g>
<g
   id="g36">
</g>
</svg>